_________________________  Visit us at _________________________
  
http://p2pdl.com  ____________________________  http://p2pdl.com


In The Shadow Of The Moon 2007 BRRip 720p x264 AAC - PRiSTiNE [P2PDL]

Genre: Documentary | History
Plot: The surviving crew members from NASA's 
Apollo missions tell their story in their own words.
Director: David Sington
Stars: Buzz Aldrin, Neil Armstrong, Stephen Armstrong
Rated: Rated PG for mild language, brief violent images and incidental smoking

Info: 
http://www.imdb.com/title/tt2084989/

General
Complete name                  : In The Shadow Of The Moon 2007 BRRip 720p x264 AAC - PRiSTiNE.mp4
Format                         : MPEG-4
File size                      : 563 MiB
Duration                       : 1h 39mn
Overall bit rate mode          : Variable
Overall bit rate               : 787 Kbps

Video
Format                         : AVC
Format/Info                    : Advanced Video Codec
Format profile                 : High 10@L4.1
Bit rate                       : 705 Kbps
Width                          : 1 280 pixels
Height                         : 720 pixels
Display aspect ratio           : 16:9
Frame rate mode                : Constant
Frame rate                     : 23.976 fps
Bit depth                      : 10 bits
Scan type                      : Progressive
Bits/(Pixel*Frame)             : 0.032
Stream size                    : 503 MiB (89%)

Audio
Format                         : AAC
Format/Info                    : Advanced Audio Codec
Bit rate                       : 79.7 Kbps
Channel(s)                     : 2 channels
Channel positions              : Front: L R
Sampling rate                  : 48.0 KHz / 24.0 KHz
Compression mode               : Lossy
Stream size                    : 56.9 MiB (10%)
Language                       : English

Subtitle                       : Yes (English)
Source                         : 720p.BluRay.x264-MySiLU (Thanks)

Screenshots:
 
http://www.ultraimg.com/images/RxFnp.jpg 
http://www.ultraimg.com/images/hmKu.jpg 
http://www.ultraimg.com/images/pa5fH.jpg 
http://www.ultraimg.com/images/Tg6W1.jpg 
http://www.ultraimg.com/images/A27r8.jpg 
http://www.ultraimg.com/images/zUhcI.jpg 
http://www.ultraimg.com/images/moPD2.jpg 
http://www.ultraimg.com/images/MixvS.jpg 
http://www.ultraimg.com/images/Xr1Rm.jpg

----------------------------------------------------------------------------------------------------


Encoded using revolutionary 10bit encoding, which enables us to provide you more crispier 
and sharper images at small sizes, just make sure you follow our instructions without a fault.
Recommend to you to use latest version of VLC player. Install K-Lite Codec Pack or shark007 codecs
in case of any kind of problem in playback (For non-VLC Media Player users). Alternatively, install
Core AVC codecs, the fastest decoder that there is coupled with Community Center Codec Pack and play
on Windows Media Player Classic. Check sample to be sure.
Enjoy!

Encoder Notes:Looking For Early Access To Anything You Can Provide DVDScr, R5, DVDR, BluRay, Direct
Audio, Music Releases and Seedboxes. We require dedicated servers, so as to do more 
and fast releases of movies.
If You Got anything to offer please contact us at "prg@hush.com".

Face book Fan Page:   
http://www.fb.me/p2pdl